# xmcd
#
# Track frame offsets:
#	150
#	16034
#	32935
#	49271
#	65872
#	87245
#	104106
#	123024
#	142997
#	162650
#	181425
#	197863
#	205022
#	219854
#	238112
#	258676
#	283094
#
# Disc length: 3839 seconds
#
# Revision: 0
# Processed by: cddbd v1.4PL0 Copyright (c) Steve Scherf et al.
# Submitted via: EasyCDDAExtractor 4.6.9.1
#
DISCID=050efd11
DTITLE=Brad Paisley - Mud On The Tires
DYEAR=2003
DGENRE=Country
TTITLE0=Mud On The Tires
TTITLE1=When You're A Celebrity
TTITLE2=Ain't Nothin' Like
TTITLE3=Little Moments
TTITLE4=That's Love
TTITLE5=Somebody Knows You Now
TTITLE6=Famous People
TTITLE7=Hold Me In Your Arms (And Let Me Fall)
TTITLE8=Whiskey Lullaby (feat. Alison Kraus)
TTITLE9=The Best Thing I Had Goin'
TTITLE10=The Cigar Song
TTITLE11=Make A Mistake With Me
TTITLE12=Make A Mistake With Me (Instrumental)
TTITLE13=Is It Raining At Your House
TTITLE14=Spaghetti Western Swing (Instrumental)
TTITLE15=Farther Along
TTITLE16=Kung Pao (Bonus)
EXTD=
EXTT0=
EXTT1=
EXTT2=
EXTT3=
EXTT4=
EXTT5=
EXTT6=
EXTT7=
EXTT8=
EXTT9=
EXTT10=
EXTT11=
EXTT12=
EXTT13=
EXTT14=
EXTT15=
EXTT16=
PLAYORDER=
